<svg width="128" height="128" viewBox="0 0 128 128" fill="none" xmlns="http://www.w3.org/2000/svg">
<rect width="128" height="128" fill="black"/>
<line y1="-0.5" x2="80.7872" y2="-0.5" transform="matrix(0.399036 -0.916935 0.699625 0.71451 17.6987 99.2529)" stroke="white" stroke-opacity="0.21"/>
<line y1="-0.5" x2="53.8581" y2="-0.5" transform="matrix(0.399036 0.916935 -0.699625 0.71451 49.3037 25.4185)" stroke="white" stroke-opacity="0.21"/>
<path d="M71.1111 74.8634L103.348 17.2483" stroke="white" stroke-opacity="0.21"/>
<path d="M22.3359 78.1783C22.3672 77.9596 22.3828 77.6393 22.3828 77.2174C22.3828 76.7955 22.3008 76.4127 22.1367 76.069C21.9727 75.7174 21.75 75.444 21.4688 75.2487C20.9766 74.9127 20.2344 74.7448 19.2422 74.7448C18.2578 74.7448 17.3867 74.9244 16.6289 75.2838C15.8789 75.6354 15.25 76.1315 14.7422 76.7721C13.7188 78.0612 13.207 79.8151 13.207 82.0338C13.207 84.1354 13.7266 85.8112 14.7656 87.0612C15.8438 88.3658 17.3008 89.0182 19.1367 89.0182C20.9414 89.0182 22.3477 88.6237 23.3555 87.8346C23.6602 87.6002 23.9375 87.3463 24.1875 87.0729C24.4219 87.1432 24.6133 87.3502 24.7617 87.694C24.8086 87.8112 24.832 87.9674 24.832 88.1627C24.832 88.3502 24.6914 88.6315 24.4102 89.0065C24.1367 89.3737 23.7344 89.7291 23.2031 90.0729C21.9375 90.901 20.4219 91.3151 18.6562 91.3151C16.125 91.3151 14.1094 90.5455 12.6094 89.0065C11.125 87.4987 10.3828 85.4791 10.3828 82.9479C10.3828 81.401 10.6289 80.0065 11.1211 78.7643C11.6133 77.5221 12.2852 76.4674 13.1367 75.6002C13.9883 74.7252 14.9805 74.0533 16.1133 73.5846C17.2539 73.1158 18.3594 72.8815 19.4297 72.8815C20.5078 72.8815 21.3711 72.9713 22.0195 73.151C22.668 73.3307 23.207 73.5768 23.6367 73.8893C24.4961 74.5299 24.9258 75.3815 24.9258 76.444C24.9258 77.2565 24.625 77.8307 24.0234 78.1666C23.8203 78.2838 23.6016 78.3424 23.3672 78.3424C22.8828 78.3424 22.5391 78.2877 22.3359 78.1783ZM33.7148 91.1276C33.5586 91.0885 33.3086 91.069 32.9648 91.069H29.2266C28.4766 91.069 27.9961 90.9362 27.7852 90.6705C27.6992 90.569 27.6562 90.4518 27.6562 90.319C27.6562 89.9908 27.7188 89.7487 27.8438 89.5924C28.0312 89.6549 28.2461 89.6862 28.4883 89.6862C28.7305 89.6862 28.9102 89.5885 29.0273 89.3932C29.1445 89.1979 29.1992 88.8346 29.1914 88.3033V73.7838C29.1914 73.2448 29.1367 72.8971 29.0273 72.7408C28.8633 72.4908 28.5742 72.3658 28.1602 72.3658H27.9258C27.8555 72.3658 27.7734 72.3776 27.6797 72.401C27.5938 72.4166 27.5195 72.4088 27.457 72.3776C27.3945 72.3385 27.3398 72.2877 27.293 72.2252C27.1289 71.983 27.3164 71.6549 27.8555 71.2408C28.6445 70.6393 29.4492 70.3385 30.2695 70.3385C31.1602 70.3385 31.6602 70.819 31.7695 71.7799C31.8008 72.069 31.8164 72.3737 31.8164 72.694V79.0807C32.9961 78.0885 34.2578 77.3971 35.6016 77.0065C36.0938 76.858 36.5898 76.7838 37.0898 76.7838C37.5977 76.7838 38.0781 76.8502 38.5312 76.983C38.9922 77.1158 39.3867 77.3307 39.7148 77.6276C40.4336 78.2682 40.793 79.2448 40.793 80.5573V88.4205C40.793 89.069 41.0117 89.4674 41.4492 89.6158C41.5742 89.6627 41.7227 89.7018 41.8945 89.733C42.0664 89.7643 42.2188 89.8033 42.3516 89.8502C42.4922 89.8893 42.6016 89.9362 42.6797 89.9908C42.8125 90.0924 42.8789 90.2565 42.8789 90.483C42.8789 90.7643 42.8203 90.9791 42.7031 91.1276C42.5391 91.0885 42.2891 91.069 41.9531 91.069H38.2148C37.4648 91.069 36.9844 90.9362 36.7734 90.6705C36.6875 90.569 36.6445 90.4518 36.6445 90.319C36.6445 89.983 36.7031 89.7408 36.8203 89.5924C37.0156 89.6549 37.2266 89.6862 37.4531 89.6862C37.6797 89.6862 37.8516 89.6041 37.9688 89.4401C38.0938 89.276 38.1641 88.9752 38.1797 88.5377V81.3893C38.1797 80.0612 37.7852 79.319 36.9961 79.1627C36.7539 79.1158 36.4492 79.0924 36.082 79.0924C35.7227 79.0924 35.3242 79.1471 34.8867 79.2565C34.457 79.3658 34.0508 79.5065 33.668 79.6783C32.9102 80.0221 32.293 80.4323 31.8164 80.9088V88.4205C31.8164 89.069 32.0352 89.4674 32.4727 89.6158C32.5977 89.6627 32.7461 89.7018 32.918 89.733C33.0898 89.7643 33.2422 89.8033 33.375 89.8502C33.5156 89.8893 33.625 89.9362 33.7031 89.9908C33.8359 90.0924 33.9023 90.2565 33.9023 90.483C33.9023 90.7565 33.8398 90.9713 33.7148 91.1276ZM52.7695 89.5807C51.6289 90.7213 50.25 91.2916 48.6328 91.2916C47.3828 91.2916 46.3828 90.9323 45.6328 90.2135C44.875 89.4869 44.4961 88.5455 44.4961 87.3893C44.4961 85.9518 45.1367 84.8737 46.418 84.1549C47.5742 83.4987 49.2031 83.1705 51.3047 83.1705H52.7695C52.7773 82.8737 52.7812 82.5846 52.7812 82.3033V81.4244C52.7812 80.3776 52.6289 79.6393 52.3242 79.2096C51.9805 78.7252 51.3945 78.483 50.5664 78.483C48.668 78.483 47.6914 79.1627 47.6367 80.5221C47.6289 80.733 47.6328 80.9088 47.6484 81.0494C47.4922 81.1744 47.2266 81.2369 46.8516 81.2369C46.4844 81.2369 46.2148 81.194 46.043 81.108C45.8789 81.0221 45.7344 80.9049 45.6094 80.7565C45.3438 80.4518 45.2109 80.0651 45.2109 79.5963C45.2109 79.1198 45.3477 78.7057 45.6211 78.3541C45.9023 77.9948 46.2812 77.7018 46.7578 77.4752C47.6875 77.0143 48.7852 76.7838 50.0508 76.7838C51.3164 76.7838 52.2656 76.9088 52.8984 77.1588C53.5391 77.401 54.0469 77.7252 54.4219 78.1315C55.0859 78.8502 55.418 79.8151 55.418 81.026L55.3008 86.651C55.3008 87.6744 55.3477 88.3229 55.4414 88.5963C55.543 88.8698 55.6602 89.0533 55.793 89.1471C55.9336 89.2408 56.1016 89.2877 56.2969 89.2877C56.5 89.2877 56.6641 89.2565 56.7891 89.194L57.1172 89.0416C57.2266 89.0026 57.3203 89.0494 57.3984 89.1823C57.4844 89.3073 57.5273 89.4205 57.5273 89.5221C57.5273 89.6158 57.4844 89.7408 57.3984 89.8971C57.3203 90.0533 57.168 90.2213 56.9414 90.401C56.7227 90.5729 56.4727 90.7252 56.1914 90.858C54.6367 91.5924 53.5781 91.4205 53.0156 90.3424C52.8984 90.1315 52.8164 89.8776 52.7695 89.5807ZM52.7344 88.0455C52.7344 86.9205 52.7422 85.8033 52.7578 84.694C51.1328 84.7565 50.0273 84.8619 49.4414 85.0104C48.8633 85.151 48.4453 85.2877 48.1875 85.4205C47.9297 85.5533 47.7266 85.7096 47.5781 85.8893C47.3359 86.1862 47.2148 86.6354 47.2148 87.2369C47.2148 87.8307 47.4258 88.3073 47.8477 88.6666C48.2695 89.0182 48.875 89.194 49.6641 89.194C50.7812 89.194 51.8047 88.8112 52.7344 88.0455ZM65.4141 91.1276C65.2578 91.0885 65.0078 91.069 64.6641 91.069H60.9258C60.1758 91.069 59.6953 90.9362 59.4844 90.6705C59.3984 90.569 59.3555 90.4518 59.3555 90.319C59.3555 89.9908 59.418 89.7487 59.543 89.5924C59.7305 89.6549 59.9414 89.6862 60.1758 89.6862C60.418 89.6862 60.5977 89.5885 60.7148 89.3932C60.8398 89.1979 60.8984 88.8346 60.8906 88.3033V80.6393C60.8906 79.9049 60.7539 79.4479 60.4805 79.2682C60.3711 79.1979 60.2266 79.1627 60.0469 79.1627C59.8672 79.1627 59.7227 79.1901 59.6133 79.2448C59.5117 79.2994 59.4258 79.3385 59.3555 79.3619C59.293 79.3854 59.2383 79.3854 59.1914 79.3619C59.1445 79.3307 59.0977 79.2877 59.0508 79.233C58.9336 79.108 58.875 78.9791 58.875 78.8463C58.875 78.7057 58.9219 78.5612 59.0156 78.4127C59.1172 78.2565 59.2773 78.0807 59.4961 77.8854C59.7148 77.6823 59.9648 77.4987 60.2461 77.3346C60.8789 76.9674 61.5117 76.7838 62.1445 76.7838C62.8711 76.7838 63.3008 77.2643 63.4336 78.2252C63.4727 78.5065 63.4961 78.7955 63.5039 79.0924C64.668 78.1158 65.9336 77.4205 67.3008 77.0065C67.793 76.858 68.2891 76.7838 68.7891 76.7838C69.2969 76.7838 69.7773 76.8502 70.2305 76.983C70.6914 77.1158 71.0898 77.3307 71.4258 77.6276C72.1367 78.2526 72.4922 79.2291 72.4922 80.5573V88.5026C72.5156 89.1119 72.7422 89.4869 73.1719 89.6276C73.2891 89.6666 73.4336 89.7018 73.6055 89.733C73.7773 89.7643 73.9297 89.8033 74.0625 89.8502C74.2031 89.8893 74.3125 89.9362 74.3906 89.9908C74.5234 90.0924 74.5898 90.2565 74.5898 90.483C74.5898 90.7565 74.5273 90.9713 74.4023 91.1276C74.2461 91.0885 73.9961 91.069 73.6523 91.069H69.9141C69.1641 91.069 68.6836 90.9362 68.4727 90.6705C68.3867 90.569 68.3438 90.4518 68.3438 90.319C68.3438 89.9908 68.4062 89.7487 68.5312 89.5924C68.7188 89.6549 68.8906 89.6862 69.0469 89.6862C69.2109 89.6862 69.3477 89.6666 69.457 89.6276C69.5664 89.5807 69.6523 89.5065 69.7148 89.4049C69.8242 89.2174 69.8789 88.8502 69.8789 88.3033V81.3893C69.8789 80.0612 69.4844 79.319 68.6953 79.1627C68.4531 79.1158 68.1484 79.0924 67.7812 79.0924C67.4219 79.0924 67.0234 79.1471 66.5859 79.2565C66.1484 79.3658 65.7383 79.5065 65.3555 79.6783C64.6211 80.0065 64.0039 80.4205 63.5039 80.9205V88.5026C63.5273 89.1119 63.75 89.4869 64.1719 89.6276C64.2969 89.6666 64.4414 89.7018 64.6055 89.733C64.7773 89.7643 64.9336 89.8033 65.0742 89.8502C65.2148 89.8893 65.3242 89.9362 65.4023 89.9908C65.5352 90.0924 65.6016 90.2565 65.6016 90.483C65.6016 90.7565 65.5391 90.9713 65.4141 91.1276ZM85.8633 89.6041C84.6523 90.7369 83.3203 91.3033 81.8672 91.3033C80.2656 91.3033 78.9609 90.7565 77.9531 89.6627C76.8594 88.4596 76.3125 86.7994 76.3125 84.6823C76.3125 82.2994 77.0703 80.3619 78.5859 78.8698C80 77.4791 81.6719 76.7838 83.6016 76.7838C84.375 76.7838 85.1172 76.9127 85.8281 77.1705V73.7838C85.8281 73.2369 85.7734 72.8893 85.6641 72.7408C85.4844 72.4908 85.1914 72.3658 84.7852 72.3658C84.6133 72.3658 84.4414 72.3854 84.2695 72.4244C84.1055 72.4557 83.9883 72.4557 83.918 72.4244C83.8555 72.3854 83.8047 72.3346 83.7656 72.2721C83.6094 72.0143 83.8047 71.6862 84.3516 71.2877C85.2109 70.6549 86.0586 70.3385 86.8945 70.3385C87.7773 70.3385 88.2812 70.819 88.4062 71.7799C88.4375 72.069 88.4531 72.3737 88.4531 72.694V86.2994C88.4531 87.5026 88.5 88.2526 88.5938 88.5494C88.6875 88.8463 88.7969 89.0416 88.9219 89.1354C89.0547 89.2213 89.2188 89.2643 89.4141 89.2643C89.6094 89.2643 89.7695 89.233 89.8945 89.1705L90.2461 89.0182C90.3477 88.9948 90.4375 89.0416 90.5156 89.1588C90.6797 89.401 90.7031 89.6198 90.5859 89.8151C90.4688 90.0104 90.293 90.1979 90.0586 90.3776C89.8242 90.5573 89.5625 90.7135 89.2734 90.8463C88.0078 91.4166 87.0625 91.4283 86.4375 90.8815C86.1328 90.6158 85.9414 90.1901 85.8633 89.6041ZM85.8281 79.5494C85.0625 78.9635 84.1719 78.6705 83.1562 78.6705C81.9375 78.6705 80.9492 79.1198 80.1914 80.0182C79.3789 80.9791 78.9727 82.2877 78.9727 83.944C78.9727 86.5768 79.7227 88.2018 81.2227 88.819C81.6914 89.0065 82.1445 89.1002 82.582 89.1002C83.0273 89.1002 83.3984 89.0651 83.6953 88.9948C83.9922 88.9244 84.2695 88.8307 84.5273 88.7135C85.043 88.4791 85.4766 88.194 85.8281 87.858V79.5494ZM92.5078 84.7643C92.5078 83.819 92.6055 82.9791 92.8008 82.2448C92.9961 81.5104 93.2578 80.8541 93.5859 80.276C93.9219 79.6901 94.3125 79.1783 94.7578 78.7408C95.2109 78.3033 95.6953 77.9401 96.2109 77.651C97.2266 77.0729 98.2266 76.7838 99.2109 76.7838C100.195 76.7838 100.984 76.9596 101.578 77.3112C102.172 77.6549 102.656 78.1158 103.031 78.694C103.727 79.7955 104.074 81.2604 104.074 83.0885C104.074 83.7682 103.789 84.1158 103.219 84.1315L95.0391 84.3073C95.0859 86.0026 95.5234 87.2565 96.3516 88.069C97.0547 88.7565 97.9648 89.1002 99.082 89.1002C100.746 89.1002 102.098 88.7526 103.137 88.0573C103.207 88.0573 103.293 88.1158 103.395 88.233C103.59 88.4674 103.688 88.6705 103.688 88.8424C103.688 89.2174 103.219 89.6979 102.281 90.2838C101.203 90.9557 99.9453 91.2916 98.5078 91.2916C96.6328 91.2916 95.1602 90.694 94.0898 89.4987C93.0352 88.3268 92.5078 86.7487 92.5078 84.7643ZM95.1094 82.7955C97.3594 82.6862 99.418 82.5416 101.285 82.3619C101.371 79.8776 100.512 78.6354 98.707 78.6354C97.6992 78.6354 96.875 79.026 96.2344 79.8073C95.6484 80.526 95.2734 81.5221 95.1094 82.7955ZM113.051 91.1276C112.895 91.0885 112.645 91.069 112.301 91.069H108.562C107.812 91.069 107.332 90.9362 107.121 90.6705C107.035 90.569 106.992 90.4518 106.992 90.319C106.992 89.9908 107.055 89.7487 107.18 89.5924C107.367 89.6549 107.582 89.6862 107.824 89.6862C108.066 89.6862 108.246 89.5885 108.363 89.3932C108.48 89.1979 108.535 88.8346 108.527 88.3033V73.7838C108.527 73.2448 108.473 72.8971 108.363 72.7408C108.199 72.4908 107.91 72.3658 107.496 72.3658H107.262C107.191 72.3658 107.109 72.3776 107.016 72.401C106.93 72.4166 106.855 72.4088 106.793 72.3776C106.73 72.3385 106.676 72.2877 106.629 72.2252C106.465 71.983 106.652 71.6549 107.191 71.2408C107.98 70.6393 108.785 70.3385 109.605 70.3385C110.496 70.3385 110.996 70.819 111.105 71.7799C111.137 72.069 111.152 72.3737 111.152 72.694V79.0807C112.332 78.0885 113.594 77.3971 114.938 77.0065C115.43 76.858 115.926 76.7838 116.426 76.7838C116.934 76.7838 117.414 76.8502 117.867 76.983C118.328 77.1158 118.723 77.3307 119.051 77.6276C119.77 78.2682 120.129 79.2448 120.129 80.5573V88.4205C120.129 89.069 120.348 89.4674 120.785 89.6158C120.91 89.6627 121.059 89.7018 121.23 89.733C121.402 89.7643 121.555 89.8033 121.688 89.8502C121.828 89.8893 121.938 89.9362 122.016 89.9908C122.148 90.0924 122.215 90.2565 122.215 90.483C122.215 90.7643 122.156 90.9791 122.039 91.1276C121.875 91.0885 121.625 91.069 121.289 91.069H117.551C116.801 91.069 116.32 90.9362 116.109 90.6705C116.023 90.569 115.98 90.4518 115.98 90.319C115.98 89.983 116.039 89.7408 116.156 89.5924C116.352 89.6549 116.562 89.6862 116.789 89.6862C117.016 89.6862 117.188 89.6041 117.305 89.4401C117.43 89.276 117.5 88.9752 117.516 88.5377V81.3893C117.516 80.0612 117.121 79.319 116.332 79.1627C116.09 79.1158 115.785 79.0924 115.418 79.0924C115.059 79.0924 114.66 79.1471 114.223 79.2565C113.793 79.3658 113.387 79.5065 113.004 79.6783C112.246 80.0221 111.629 80.4323 111.152 80.9088V88.4205C111.152 89.069 111.371 89.4674 111.809 89.6158C111.934 89.6627 112.082 89.7018 112.254 89.733C112.426 89.7643 112.578 89.8033 112.711 89.8502C112.852 89.8893 112.961 89.9362 113.039 89.9908C113.172 90.0924 113.238 90.2565 113.238 90.483C113.238 90.7565 113.176 90.9713 113.051 91.1276Z" fill="white"/>
<path d="M20.6875 61.125C20.4479 61.0417 19.9323 61 19.1406 61H12.625C12.0833 61 11.6458 60.9167 11.3125 60.75C10.9896 60.5729 10.8281 60.2552 10.8281 59.7969C10.8281 59.474 10.9115 59.2083 11.0781 59C11.474 59.1042 11.8438 59.1562 12.1875 59.1562C12.5312 59.1562 12.7969 59.1198 12.9844 59.0469C13.1719 58.974 13.3333 58.8438 13.4688 58.6562C13.7604 58.2708 13.9167 57.6198 13.9375 56.7031V40.5625C13.9062 39.8333 13.6667 39.3698 13.2188 39.1719C13.0833 39.1094 12.8958 39.0521 12.6562 39L11.9062 38.8438C11.3854 38.7188 11.0677 38.5677 10.9531 38.3906C10.8385 38.2031 10.7812 38.0156 10.7812 37.8281C10.7812 37.4323 10.8646 37.1302 11.0312 36.9219C11.2708 37.0052 11.7865 37.0469 12.5781 37.0469H19.0938C19.6354 37.0469 20.0677 37.1354 20.3906 37.3125C20.7135 37.4792 20.875 37.7917 20.875 38.25C20.875 38.6042 20.7969 38.8698 20.6406 39.0469C20.2448 38.9427 19.8646 38.8906 19.5 38.8906C19.1458 38.8906 18.8646 38.9323 18.6562 39.0156C18.4583 39.0885 18.2812 39.2188 18.125 39.4062C17.8125 39.8021 17.6458 40.4531 17.625 41.3594V57.5C17.6458 58.0104 17.7448 58.3542 17.9219 58.5312C18.1823 58.7708 18.5 58.9323 18.875 59.0156C19.25 59.0885 19.5573 59.1562 19.7969 59.2188C20.0469 59.2708 20.2552 59.3385 20.4219 59.4219C20.7552 59.5885 20.9219 59.8698 20.9219 60.2656C20.9219 60.651 20.8438 60.9375 20.6875 61.125ZM33.625 39C33.375 38.9167 33.099 38.875 32.7969 38.875C32.4948 38.875 32.2552 38.9323 32.0781 39.0469C31.901 39.151 31.7083 39.3021 31.5 39.5C31.2917 39.6875 31.0625 39.9167 30.8125 40.1875L22.5625 48.7344C24.4688 49.2656 26.1198 50.5469 27.5156 52.5781C27.9115 53.151 28.2812 53.7188 28.625 54.2812L29.5781 55.9062C30.6094 57.6875 31.5625 58.5521 32.4375 58.5C32.8646 58.5 33.1979 58.4479 33.4375 58.3438C33.6875 58.2396 33.8646 58.1875 33.9688 58.1875C34.0729 58.1875 34.1823 58.2708 34.2969 58.4375C34.4219 58.5938 34.4844 58.776 34.4844 58.9844C34.4844 59.1927 34.3958 59.4427 34.2188 59.7344C34.0417 60.0156 33.7917 60.2708 33.4688 60.5C32.7396 61.0312 31.9323 61.2969 31.0469 61.2969C30.1719 61.2969 29.4688 61.1823 28.9375 60.9531C28.4167 60.724 27.9375 60.3646 27.5 59.875C27.0729 59.3854 26.6771 58.8333 26.3125 58.2188C25.9479 57.5938 25.599 56.9635 25.2656 56.3281L24.2812 54.4375C23.125 52.2396 21.8646 50.9219 20.5 50.4844C20.2917 50.4219 20.1042 50.4062 19.9375 50.4375C19.7708 50.4583 19.5781 50.4844 19.3594 50.5156C19.2344 50.474 19.1406 50.3281 19.0781 50.0781C19.0156 49.8177 18.9844 49.6094 18.9844 49.4531C18.9844 49.2865 19.0469 49.1458 19.1719 49.0312L27.0938 40.25C27.3542 39.9688 27.4844 39.7396 27.4844 39.5625C27.4844 39.1875 26.8958 38.9219 25.7188 38.7656C25.2083 38.7031 24.8958 38.5938 24.7812 38.4375C24.6771 38.2708 24.625 38.0833 24.625 37.875C24.625 37.4792 24.7083 37.1771 24.875 36.9688C25.0625 37.0208 25.2396 37.0469 25.4062 37.0469H31.4844C32.6094 37.0469 33.3333 37.1979 33.6562 37.5C33.8021 37.6354 33.875 37.8021 33.875 38C33.875 38.4792 33.7917 38.8125 33.625 39ZM35.8281 52.375C35.8281 51.1042 35.9531 49.9635 36.2031 48.9531C36.4531 47.9427 36.7969 47.0521 37.2344 46.2812C37.6719 45.5104 38.1875 44.8542 38.7812 44.3125C39.375 43.7604 40.0104 43.3125 40.6875 42.9688C42.0104 42.2917 43.4635 41.9531 45.0469 41.9531C47.0781 41.9531 48.8021 42.6927 50.2188 44.1719C51.7917 45.7969 52.5781 47.9427 52.5781 50.6094C52.5781 54.1094 51.625 56.8333 49.7188 58.7812C48.0625 60.4583 46.0781 61.2969 43.7656 61.2969C41.349 61.2969 39.4115 60.4479 37.9531 58.75C36.5365 57.1146 35.8281 54.9896 35.8281 52.375ZM44.6875 58.75C45.3854 58.75 46.0104 58.5885 46.5625 58.2656C47.1146 57.9323 47.5833 57.4792 47.9688 56.9062C48.7396 55.7188 49.125 54.1771 49.125 52.2812C49.125 50.1979 48.7188 48.4271 47.9062 46.9688C46.9896 45.2917 45.6719 44.4531 43.9531 44.4531C42.5677 44.4531 41.4583 44.9844 40.625 46.0469C39.7396 47.1719 39.2969 48.7448 39.2969 50.7656C39.2969 53.2969 39.8542 55.2969 40.9688 56.7656C41.9688 58.0885 43.2083 58.75 44.6875 58.75ZM59.3438 39.0469C58.625 39.0469 58.0365 38.8333 57.5781 38.4062C57.1302 37.9792 56.9062 37.3906 56.9062 36.6406C56.9062 35.9323 57.1771 35.3333 57.7188 34.8438C58.2396 34.3542 58.8594 34.1094 59.5781 34.1094C60.3073 34.1094 60.8906 34.3281 61.3281 34.7656C61.7656 35.2031 61.9844 35.7969 61.9844 36.5469C61.9844 37.2552 61.724 37.8542 61.2031 38.3438C60.6927 38.8125 60.0729 39.0469 59.3438 39.0469ZM54.2812 64.9062C54.3229 65.2396 54.4635 65.5365 54.7031 65.7969C54.9531 66.0573 55.3021 66.1875 55.75 66.1875C56.2083 66.1875 56.5885 66.1406 56.8906 66.0469C57.2031 65.9531 57.4688 65.7812 57.6875 65.5312C58.125 65 58.3438 64.0521 58.3438 62.6875V46.8438C58.3438 46.1146 58.2396 45.6094 58.0312 45.3281C57.8333 45.0365 57.474 44.8906 56.9531 44.8906C56.6823 44.8906 56.4375 44.9375 56.2188 45.0312C56.0208 45.0521 55.8802 44.9062 55.7969 44.5938C55.724 44.3229 55.7656 44.0833 55.9219 43.875C56.0781 43.6562 56.3073 43.4271 56.6094 43.1875C56.9115 42.9479 57.2396 42.7396 57.5938 42.5625C58.3854 42.1562 59.0573 41.9531 59.6094 41.9531C60.1615 41.9531 60.5729 42.0365 60.8438 42.2031C61.125 42.3698 61.3385 42.5938 61.4844 42.875C61.7135 43.3333 61.8281 44.0729 61.8281 45.0938V60.4219C61.8281 63.151 61.1771 65.3021 59.875 66.875C58.6875 68.3125 57.2188 69.0312 55.4688 69.0312C53.8229 69.0312 52.7396 68.5625 52.2188 67.625C52.0729 67.3438 52 66.9688 52 66.5C52 66.0417 52.1823 65.651 52.5469 65.3281C52.901 65.0156 53.2396 64.8594 53.5625 64.8594C53.8854 64.8594 54.125 64.875 54.2812 64.9062ZM78.0781 59.0156C76.5573 60.5365 74.7188 61.2969 72.5625 61.2969C70.8958 61.2969 69.5625 60.8177 68.5625 59.8594C67.5521 58.8906 67.0469 57.6354 67.0469 56.0938C67.0469 54.1771 67.901 52.7396 69.6094 51.7812C71.151 50.9062 73.3229 50.4688 76.125 50.4688H78.0781C78.0885 50.0729 78.0938 49.6875 78.0938 49.3125V48.1406C78.0938 46.7448 77.8906 45.7604 77.4844 45.1875C77.026 44.5417 76.2448 44.2188 75.1406 44.2188C72.6094 44.2188 71.3073 45.125 71.2344 46.9375C71.224 47.2188 71.2292 47.4531 71.25 47.6406C71.0417 47.8073 70.6875 47.8906 70.1875 47.8906C69.6979 47.8906 69.3385 47.8333 69.1094 47.7188C68.8906 47.6042 68.6979 47.4479 68.5312 47.25C68.1771 46.8438 68 46.3281 68 45.7031C68 45.0677 68.1823 44.5156 68.5469 44.0469C68.9219 43.5677 69.4271 43.1771 70.0625 42.875C71.3021 42.2604 72.7656 41.9531 74.4531 41.9531C76.1406 41.9531 77.4062 42.1198 78.25 42.4531C79.1042 42.776 79.7812 43.2083 80.2812 43.75C81.1667 44.7083 81.6094 45.9948 81.6094 47.6094L81.4531 55.1094C81.4531 56.474 81.5156 57.3385 81.6406 57.7031C81.776 58.0677 81.9323 58.3125 82.1094 58.4375C82.2969 58.5625 82.5208 58.625 82.7812 58.625C83.0521 58.625 83.2708 58.5833 83.4375 58.5L83.875 58.2969C84.0208 58.2448 84.1458 58.3073 84.25 58.4844C84.3646 58.651 84.4219 58.8021 84.4219 58.9375C84.4219 59.0625 84.3646 59.2292 84.25 59.4375C84.1458 59.6458 83.9427 59.8698 83.6406 60.1094C83.349 60.3385 83.0156 60.5417 82.6406 60.7188C80.5677 61.6979 79.1562 61.4688 78.4062 60.0312C78.25 59.75 78.1406 59.4115 78.0781 59.0156ZM78.0312 56.9688C78.0312 55.4688 78.0417 53.9792 78.0625 52.5C75.8958 52.5833 74.4219 52.724 73.6406 52.9219C72.8698 53.1094 72.3125 53.2917 71.9688 53.4688C71.625 53.6458 71.3542 53.8542 71.1562 54.0938C70.8333 54.4896 70.6719 55.0885 70.6719 55.8906C70.6719 56.6823 70.9531 57.3177 71.5156 57.7969C72.0781 58.2656 72.8854 58.5 73.9375 58.5C75.4271 58.5 76.7917 57.9896 78.0312 56.9688Z" fill="#EE2B2B"/>
</svg>
